<mxfile host="app.diagrams.net" modified="2024-01-21T22:20:51.830Z" agent="Mozilla/5.0 (Windows NT 10.0; Win64; x64; rv:121.0) Gecko/20100101 Firefox/121.0" etag="i8m8jLi-RmMFu3qA_1qX" version="22.1.21" type="device">
  <diagram name="Page-1" id="omD25EB5Sl1QgtI0PM1A">
    <mxGraphModel dx="2284" dy="774" grid="1" gridSize="10" guides="1" tooltips="1" connect="1" arrows="1" fold="1" page="1" pageScale="1" pageWidth="850" pageHeight="1100" background="none" math="0" shadow="0">
      <root>
        <mxCell id="0" />
        <mxCell id="1" parent="0" />
        <mxCell id="jPSQCuGE4UJFFwHqcZbq-4" value="Load&amp;nbsp; or generate tableaux" style="rhombus;whiteSpace=wrap;html=1;" parent="1" vertex="1">
          <mxGeometry x="370" y="250" width="80" height="80" as="geometry" />
        </mxCell>
        <mxCell id="jPSQCuGE4UJFFwHqcZbq-5" value="" style="endArrow=classic;html=1;rounded=0;exitX=0.5;exitY=1;exitDx=0;exitDy=0;entryX=0.5;entryY=0;entryDx=0;entryDy=0;" parent="1" source="jPSQCuGE4UJFFwHqcZbq-20" target="jPSQCuGE4UJFFwHqcZbq-4" edge="1">
          <mxGeometry width="50" height="50" relative="1" as="geometry">
            <mxPoint x="310" y="120" as="sourcePoint" />
            <mxPoint x="410" y="200" as="targetPoint" />
            <Array as="points">
              <mxPoint x="310" y="210" />
              <mxPoint x="410" y="210" />
            </Array>
          </mxGeometry>
        </mxCell>
        <mxCell id="jPSQCuGE4UJFFwHqcZbq-6" value="" style="endArrow=classic;html=1;rounded=0;exitX=0.5;exitY=1;exitDx=0;exitDy=0;entryX=0.5;entryY=0;entryDx=0;entryDy=0;" parent="1" source="jPSQCuGE4UJFFwHqcZbq-21" target="jPSQCuGE4UJFFwHqcZbq-4" edge="1">
          <mxGeometry width="50" height="50" relative="1" as="geometry">
            <mxPoint x="510" y="120" as="sourcePoint" />
            <mxPoint x="450" y="380" as="targetPoint" />
            <Array as="points">
              <mxPoint x="510" y="210" />
              <mxPoint x="410" y="210" />
            </Array>
          </mxGeometry>
        </mxCell>
        <mxCell id="jPSQCuGE4UJFFwHqcZbq-7" value="" style="endArrow=classic;html=1;rounded=0;exitX=0;exitY=0.5;exitDx=0;exitDy=0;" parent="1" source="jPSQCuGE4UJFFwHqcZbq-4" target="jPSQCuGE4UJFFwHqcZbq-14" edge="1">
          <mxGeometry width="50" height="50" relative="1" as="geometry">
            <mxPoint x="400" y="430" as="sourcePoint" />
            <mxPoint x="280" y="370" as="targetPoint" />
            <Array as="points">
              <mxPoint x="280" y="290" />
            </Array>
          </mxGeometry>
        </mxCell>
        <mxCell id="jPSQCuGE4UJFFwHqcZbq-8" value="Load" style="edgeLabel;html=1;align=center;verticalAlign=middle;resizable=0;points=[];" parent="jPSQCuGE4UJFFwHqcZbq-7" vertex="1" connectable="0">
          <mxGeometry x="0.0182" y="1" relative="1" as="geometry">
            <mxPoint as="offset" />
          </mxGeometry>
        </mxCell>
        <mxCell id="jPSQCuGE4UJFFwHqcZbq-10" value="" style="endArrow=classic;html=1;rounded=0;exitX=1;exitY=0.5;exitDx=0;exitDy=0;" parent="1" source="jPSQCuGE4UJFFwHqcZbq-4" target="jPSQCuGE4UJFFwHqcZbq-13" edge="1">
          <mxGeometry width="50" height="50" relative="1" as="geometry">
            <mxPoint x="610" y="310" as="sourcePoint" />
            <mxPoint x="560" y="370" as="targetPoint" />
            <Array as="points">
              <mxPoint x="560" y="290" />
            </Array>
          </mxGeometry>
        </mxCell>
        <mxCell id="jPSQCuGE4UJFFwHqcZbq-12" value="Generate" style="edgeLabel;html=1;align=center;verticalAlign=middle;resizable=0;points=[];" parent="jPSQCuGE4UJFFwHqcZbq-10" vertex="1" connectable="0">
          <mxGeometry x="0.0456" relative="1" as="geometry">
            <mxPoint x="-7" y="-2" as="offset" />
          </mxGeometry>
        </mxCell>
        <mxCell id="jPSQCuGE4UJFFwHqcZbq-17" style="edgeStyle=orthogonalEdgeStyle;rounded=0;orthogonalLoop=1;jettySize=auto;html=1;entryX=1;entryY=0.5;entryDx=0;entryDy=0;" parent="1" source="jPSQCuGE4UJFFwHqcZbq-30" target="jPSQCuGE4UJFFwHqcZbq-37" edge="1">
          <mxGeometry relative="1" as="geometry">
            <Array as="points">
              <mxPoint x="560" y="590" />
            </Array>
          </mxGeometry>
        </mxCell>
        <mxCell id="jPSQCuGE4UJFFwHqcZbq-36" value="No" style="edgeLabel;html=1;align=center;verticalAlign=middle;resizable=0;points=[];" parent="jPSQCuGE4UJFFwHqcZbq-17" vertex="1" connectable="0">
          <mxGeometry x="-0.5652" y="2" relative="1" as="geometry">
            <mxPoint as="offset" />
          </mxGeometry>
        </mxCell>
        <mxCell id="jPSQCuGE4UJFFwHqcZbq-13" value="Generate tableaux" style="rounded=0;whiteSpace=wrap;html=1;" parent="1" vertex="1">
          <mxGeometry x="500" y="370" width="120" height="60" as="geometry" />
        </mxCell>
        <mxCell id="jPSQCuGE4UJFFwHqcZbq-16" style="edgeStyle=orthogonalEdgeStyle;rounded=0;orthogonalLoop=1;jettySize=auto;html=1;entryX=0;entryY=0.5;entryDx=0;entryDy=0;" parent="1" source="jPSQCuGE4UJFFwHqcZbq-14" target="jPSQCuGE4UJFFwHqcZbq-37" edge="1">
          <mxGeometry relative="1" as="geometry">
            <Array as="points">
              <mxPoint x="280" y="590" />
            </Array>
          </mxGeometry>
        </mxCell>
        <mxCell id="jPSQCuGE4UJFFwHqcZbq-14" value="Load tableaux from a directory" style="rounded=0;whiteSpace=wrap;html=1;" parent="1" vertex="1">
          <mxGeometry x="220" y="370" width="120" height="60" as="geometry" />
        </mxCell>
        <mxCell id="jPSQCuGE4UJFFwHqcZbq-23" style="edgeStyle=orthogonalEdgeStyle;rounded=0;orthogonalLoop=1;jettySize=auto;html=1;" parent="1" source="jPSQCuGE4UJFFwHqcZbq-15" target="jPSQCuGE4UJFFwHqcZbq-22" edge="1">
          <mxGeometry relative="1" as="geometry" />
        </mxCell>
        <mxCell id="jPSQCuGE4UJFFwHqcZbq-15" value="Analyze tableaux" style="rounded=0;whiteSpace=wrap;html=1;" parent="1" vertex="1">
          <mxGeometry x="360" y="680" width="120" height="60" as="geometry" />
        </mxCell>
        <mxCell id="jPSQCuGE4UJFFwHqcZbq-20" value="Interactive input" style="shape=parallelogram;perimeter=parallelogramPerimeter;whiteSpace=wrap;html=1;fixedSize=1;" parent="1" vertex="1">
          <mxGeometry x="250" y="100" width="120" height="60" as="geometry" />
        </mxCell>
        <mxCell id="jPSQCuGE4UJFFwHqcZbq-21" value="&lt;br&gt;&lt;div&gt;Command line&amp;nbsp;&lt;/div&gt;&lt;div&gt;input&lt;/div&gt;&lt;div&gt;&lt;br&gt;&lt;/div&gt;" style="shape=parallelogram;perimeter=parallelogramPerimeter;whiteSpace=wrap;html=1;fixedSize=1;" parent="1" vertex="1">
          <mxGeometry x="450" y="100" width="120" height="60" as="geometry" />
        </mxCell>
        <mxCell id="jPSQCuGE4UJFFwHqcZbq-49" value="" style="edgeStyle=orthogonalEdgeStyle;rounded=0;orthogonalLoop=1;jettySize=auto;html=1;" parent="1" source="jPSQCuGE4UJFFwHqcZbq-22" target="jPSQCuGE4UJFFwHqcZbq-48" edge="1">
          <mxGeometry relative="1" as="geometry" />
        </mxCell>
        <mxCell id="jPSQCuGE4UJFFwHqcZbq-22" value="&lt;div&gt;Generate database,&amp;nbsp;&lt;/div&gt;&lt;div&gt;relay it to gnuplot&lt;/div&gt;" style="shape=parallelogram;perimeter=parallelogramPerimeter;whiteSpace=wrap;html=1;fixedSize=1;" parent="1" vertex="1">
          <mxGeometry x="315" y="810" width="210" height="60" as="geometry" />
        </mxCell>
        <mxCell id="jPSQCuGE4UJFFwHqcZbq-25" value="&lt;h1&gt;Multithreading&lt;/h1&gt;&lt;p&gt;Those blocks are executed utilizing multithreading&lt;br&gt;&lt;/p&gt;" style="text;html=1;strokeColor=none;fillColor=none;spacing=5;spacingTop=-20;whiteSpace=wrap;overflow=hidden;rounded=0;" parent="1" vertex="1">
          <mxGeometry x="-20" y="360" width="190" height="120" as="geometry" />
        </mxCell>
        <mxCell id="jPSQCuGE4UJFFwHqcZbq-26" value="" style="endArrow=none;dashed=1;html=1;dashPattern=1 3;strokeWidth=2;rounded=0;" parent="1" edge="1">
          <mxGeometry width="50" height="50" relative="1" as="geometry">
            <mxPoint x="-49" y="340" as="sourcePoint" />
            <mxPoint x="801" y="340" as="targetPoint" />
          </mxGeometry>
        </mxCell>
        <mxCell id="jPSQCuGE4UJFFwHqcZbq-27" value="" style="endArrow=none;dashed=1;html=1;dashPattern=1 3;strokeWidth=2;rounded=0;" parent="1" edge="1">
          <mxGeometry width="50" height="50" relative="1" as="geometry">
            <mxPoint x="-50" y="780" as="sourcePoint" />
            <mxPoint x="800" y="780" as="targetPoint" />
            <Array as="points">
              <mxPoint x="380" y="780" />
            </Array>
          </mxGeometry>
        </mxCell>
        <mxCell id="jPSQCuGE4UJFFwHqcZbq-28" value="" style="endArrow=none;dashed=1;html=1;dashPattern=1 3;strokeWidth=2;rounded=0;" parent="1" edge="1">
          <mxGeometry width="50" height="50" relative="1" as="geometry">
            <mxPoint x="800" y="780" as="sourcePoint" />
            <mxPoint x="800" y="340" as="targetPoint" />
          </mxGeometry>
        </mxCell>
        <mxCell id="jPSQCuGE4UJFFwHqcZbq-29" value="" style="endArrow=none;dashed=1;html=1;dashPattern=1 3;strokeWidth=2;rounded=0;" parent="1" edge="1">
          <mxGeometry width="50" height="50" relative="1" as="geometry">
            <mxPoint x="-50" y="780" as="sourcePoint" />
            <mxPoint x="-50" y="340" as="targetPoint" />
          </mxGeometry>
        </mxCell>
        <mxCell id="jPSQCuGE4UJFFwHqcZbq-31" value="" style="edgeStyle=orthogonalEdgeStyle;rounded=0;orthogonalLoop=1;jettySize=auto;html=1;entryX=0.5;entryY=0;entryDx=0;entryDy=0;" parent="1" source="jPSQCuGE4UJFFwHqcZbq-13" target="jPSQCuGE4UJFFwHqcZbq-30" edge="1">
          <mxGeometry relative="1" as="geometry">
            <mxPoint x="560" y="430" as="sourcePoint" />
            <mxPoint x="480" y="690" as="targetPoint" />
            <Array as="points" />
          </mxGeometry>
        </mxCell>
        <mxCell id="jPSQCuGE4UJFFwHqcZbq-33" value="" style="edgeStyle=orthogonalEdgeStyle;rounded=0;orthogonalLoop=1;jettySize=auto;html=1;" parent="1" source="jPSQCuGE4UJFFwHqcZbq-30" target="jPSQCuGE4UJFFwHqcZbq-32" edge="1">
          <mxGeometry relative="1" as="geometry" />
        </mxCell>
        <mxCell id="jPSQCuGE4UJFFwHqcZbq-34" value="Yes" style="edgeLabel;html=1;align=center;verticalAlign=middle;resizable=0;points=[];" parent="jPSQCuGE4UJFFwHqcZbq-33" vertex="1" connectable="0">
          <mxGeometry x="-0.0667" y="1" relative="1" as="geometry">
            <mxPoint as="offset" />
          </mxGeometry>
        </mxCell>
        <mxCell id="jPSQCuGE4UJFFwHqcZbq-30" value="Should save?" style="rhombus;whiteSpace=wrap;html=1;" parent="1" vertex="1">
          <mxGeometry x="520" y="460" width="80" height="80" as="geometry" />
        </mxCell>
        <mxCell id="jPSQCuGE4UJFFwHqcZbq-32" value="Save tableaux" style="whiteSpace=wrap;html=1;" parent="1" vertex="1">
          <mxGeometry x="660" y="470" width="120" height="60" as="geometry" />
        </mxCell>
        <mxCell id="jPSQCuGE4UJFFwHqcZbq-38" style="edgeStyle=orthogonalEdgeStyle;rounded=0;orthogonalLoop=1;jettySize=auto;html=1;entryX=0.5;entryY=0;entryDx=0;entryDy=0;" parent="1" source="jPSQCuGE4UJFFwHqcZbq-37" target="jPSQCuGE4UJFFwHqcZbq-15" edge="1">
          <mxGeometry relative="1" as="geometry" />
        </mxCell>
        <mxCell id="jPSQCuGE4UJFFwHqcZbq-39" value="No" style="edgeLabel;html=1;align=center;verticalAlign=middle;resizable=0;points=[];" parent="jPSQCuGE4UJFFwHqcZbq-38" vertex="1" connectable="0">
          <mxGeometry x="-0.0364" relative="1" as="geometry">
            <mxPoint as="offset" />
          </mxGeometry>
        </mxCell>
        <mxCell id="jPSQCuGE4UJFFwHqcZbq-40" style="edgeStyle=orthogonalEdgeStyle;rounded=0;orthogonalLoop=1;jettySize=auto;html=1;exitX=1;exitY=1;exitDx=0;exitDy=0;" parent="1" source="jPSQCuGE4UJFFwHqcZbq-37" target="jPSQCuGE4UJFFwHqcZbq-43" edge="1">
          <mxGeometry relative="1" as="geometry">
            <mxPoint x="580" y="710" as="targetPoint" />
          </mxGeometry>
        </mxCell>
        <mxCell id="jPSQCuGE4UJFFwHqcZbq-41" value="Yes" style="edgeLabel;html=1;align=center;verticalAlign=middle;resizable=0;points=[];" parent="jPSQCuGE4UJFFwHqcZbq-40" vertex="1" connectable="0">
          <mxGeometry x="-0.3763" y="-2" relative="1" as="geometry">
            <mxPoint as="offset" />
          </mxGeometry>
        </mxCell>
        <mxCell id="jPSQCuGE4UJFFwHqcZbq-37" value="Should print?" style="rhombus;whiteSpace=wrap;html=1;" parent="1" vertex="1">
          <mxGeometry x="380" y="550" width="80" height="80" as="geometry" />
        </mxCell>
        <mxCell id="jPSQCuGE4UJFFwHqcZbq-46" style="edgeStyle=orthogonalEdgeStyle;rounded=0;orthogonalLoop=1;jettySize=auto;html=1;exitX=0.5;exitY=1;exitDx=0;exitDy=0;entryX=1;entryY=0.5;entryDx=0;entryDy=0;" parent="1" source="jPSQCuGE4UJFFwHqcZbq-43" target="jPSQCuGE4UJFFwHqcZbq-15" edge="1">
          <mxGeometry relative="1" as="geometry" />
        </mxCell>
        <mxCell id="jPSQCuGE4UJFFwHqcZbq-43" value="Print to stdout" style="shape=parallelogram;perimeter=parallelogramPerimeter;whiteSpace=wrap;html=1;fixedSize=1;" parent="1" vertex="1">
          <mxGeometry x="840" y="630" width="120" height="60" as="geometry" />
        </mxCell>
        <mxCell id="jPSQCuGE4UJFFwHqcZbq-48" value="Show graph to the user" style="shape=parallelogram;perimeter=parallelogramPerimeter;whiteSpace=wrap;html=1;fixedSize=1;" parent="1" vertex="1">
          <mxGeometry x="315" y="910" width="210" height="60" as="geometry" />
        </mxCell>
      </root>
    </mxGraphModel>
  </diagram>
</mxfile>
